<?xml version="1.0" encoding="UTF-8" standalone="no"?>
<svg
   width="421.65146"
   height="425.5159"
   xml:space="preserve"
   overflow="hidden"
   version="1.1"
   id="svg5"
   sodipodi:docname="Data_Lab_Logo_BW.svg"
   inkscape:version="1.4.2 (ebf0e940, 2025-05-08)"
   xmlns:inkscape="http://www.inkscape.org/namespaces/inkscape"
   xmlns:sodipodi="http://sodipodi.sourceforge.net/DTD/sodipodi-0.dtd"
   xmlns="http://www.w3.org/2000/svg"
   xmlns:svg="http://www.w3.org/2000/svg"><sodipodi:namedview
     id="namedview5"
     pagecolor="#ffffff"
     bordercolor="#000000"
     borderopacity="0.25"
     inkscape:showpageshadow="2"
     inkscape:pageopacity="0.0"
     inkscape:pagecheckerboard="0"
     inkscape:deskcolor="#d1d1d1"
     inkscape:zoom="1.0191919"
     inkscape:cx="215.85728"
     inkscape:cy="230.08424"
     inkscape:window-width="976"
     inkscape:window-height="1186"
     inkscape:window-x="2240"
     inkscape:window-y="25"
     inkscape:window-maximized="0"
     inkscape:current-layer="svg5" /><defs
     id="defs1"><clipPath
       id="clip0"><rect
         x="290"
         y="-135"
         width="700"
         height="990"
         id="rect1" /></clipPath></defs><g
     clip-path="url(#clip0)"
     transform="translate(-424.30057,-129.9264)"
     id="g5"><path
       d="m 445.447,434.511 c 0,9.084 -7.408,16.492 -16.492,16.492 H 412.199 V 416.08 h 16.756 c 8.819,0 16.492,7.76 16.492,17.197 z M 444.3,388.564 c 0,9.701 -6.614,16.492 -15.345,16.492 h -16.756 v -31.925 h 16.756 c 9.084,0 15.345,6.085 15.345,15.345 z m 12.171,44.625 c 0,-11.73 -6.35,-19.226 -12.435,-22.665 6.173,-3.44 11.288,-11.112 11.288,-21.96 v -0.176 c 0,-14.992 -10.847,-26.28 -26.28,-26.28 H 406.82 c -2.911,0 -5.468,2.557 -5.468,5.467 v 88.807 c 0,2.911 2.557,5.468 5.468,5.468 h 22.224 c 15.168,0 27.427,-12.258 27.427,-27.427 z m -116.146,-5.997 14.286,-46.212 14.463,46.212 z m 49.386,30.337 c 0,-0.441 -0.176,-0.97 -0.265,-1.764 l -28.132,-90.394 c -0.882,-2.734 -3.616,-4.057 -6.614,-4.057 -2.911,0 -5.645,1.323 -6.527,4.057 l -28.132,90.394 c -0.176,0.706 -0.265,1.323 -0.265,1.764 0,2.91 2.293,5.203 5.645,5.203 2.204,0 4.233,-0.97 5.026,-3.792 l 6.526,-20.813 h 35.717 l 6.35,20.813 c 0.882,2.734 2.998,3.792 5.203,3.792 3.175,0 5.468,-2.381 5.468,-5.203 m -81.576,-1.058 c 0,-2.734 -1.852,-5.468 -5.467,-5.468 h -33.954 v -84.221 c 0,-3.616 -2.733,-5.468 -5.467,-5.468 -2.734,0 -5.468,1.852 -5.468,5.468 v 89.689 c 0,2.91 2.557,5.467 5.468,5.467 h 39.421 c 3.527,0 5.467,-2.733 5.467,-5.467"
       transform="matrix(1.00005,0,0,1,385.137,92.7103)"
       id="path1" /><path
       d="m 411.406,265.187 14.286,-46.212 14.464,46.212 z m 49.386,30.337 c 0,-0.441 -0.176,-0.97 -0.265,-1.764 l -28.132,-90.394 c -0.882,-2.734 -3.616,-4.057 -6.614,-4.057 -2.911,0 -5.645,1.323 -6.526,4.057 l -28.133,90.394 c -0.176,0.706 -0.265,1.323 -0.265,1.764 0,2.91 2.293,5.203 5.645,5.203 2.204,0 4.233,-0.97 5.026,-3.792 l 6.526,-20.813 h 35.541 l 6.35,20.813 c 0.882,2.734 2.998,3.792 5.203,3.792 3.263,0 5.644,-2.381 5.644,-5.203 m -73.727,-89.865 c 0,-2.734 -1.852,-5.468 -5.468,-5.468 h -42.772 c -3.615,0 -5.467,2.734 -5.467,5.468 0,2.734 1.852,5.467 5.467,5.467 H 354.7 v 84.222 c 0,3.616 2.733,5.379 5.467,5.379 2.734,0 5.468,-1.763 5.468,-5.379 v -84.222 h 15.874 c 3.704,0 5.556,-2.733 5.556,-5.467 m -103.094,59.528 14.287,-46.212 14.463,46.212 z m 49.387,30.337 c 0,-0.441 -0.177,-0.97 -0.265,-1.764 L 304.96,203.366 c -0.881,-2.734 -3.615,-4.057 -6.614,-4.057 -2.91,0 -5.644,1.323 -6.526,4.057 l -28.132,90.394 c -0.177,0.706 -0.265,1.323 -0.265,1.764 0,2.91 2.293,5.203 5.644,5.203 2.205,0 4.233,-0.97 5.027,-3.792 l 6.526,-20.813 h 35.717 l 6.35,20.813 c 0.882,2.734 2.998,3.792 5.203,3.792 3.175,0 5.468,-2.381 5.468,-5.203 m -96.039,-23.017 c 0,9.083 -7.408,16.491 -16.492,16.491 h -17.902 v -77.872 h 18.079 c 9.083,0 16.315,7.408 16.315,16.492 z m 10.847,-45.065 c 0,-14.993 -12.258,-27.339 -27.339,-27.339 h -23.37 c -2.91,0 -5.468,2.557 -5.468,5.468 v 88.807 c 0,2.91 2.558,5.467 5.468,5.467 h 23.37 c 14.993,0 27.339,-12.258 27.339,-27.427 z"
       transform="matrix(1.00005,0,0,1,385.137,92.7103)"
       id="path2" /><path
       d="m 459.205,132.461 c 0,-2.734 -1.852,-5.468 -5.468,-5.468 H 417.314 L 458.323,48.2398 C 460.88,43.213 458.058,38.098 452.678,38.098 h -41.272 c -3.881,0 -5.468,2.7339 -5.468,5.4678 0,2.7339 1.587,5.4678 5.468,5.4678 h 34.217 l -40.832,78.4004 c -0.617,0.97 -0.882,2.205 -0.882,3.44 0,3.616 2.293,6.967 6.35,6.967 h 43.478 c 3.527,0.088 5.468,-2.646 5.468,-5.38 M 380.716,42.7721 c 0,-3.6158 -2.734,-5.4678 -5.468,-5.4678 -2.734,0 -5.468,1.852 -5.468,5.4678 v 90.5709 c 0,3.616 2.734,5.38 5.468,5.38 2.734,0 5.468,-1.764 5.468,-5.38 z m -39.069,46.2115 c 0,-2.9103 -2.557,-5.4678 -5.467,-5.4678 h -20.637 c -3.616,0 -5.467,2.7339 -5.467,5.4678 0,2.7338 1.851,5.4677 5.467,5.4677 h 15.169 v 16.9327 c 0,9.083 -7.408,16.491 -16.492,16.491 h -1.411 c -9.083,0 -16.491,-7.408 -16.491,-16.491 V 64.555 c 0,-8.819 7.408,-16.3152 16.491,-16.3152 h 1.411 c 9.349,0 14.905,6.0851 16.492,14.1986 0.617,3.3512 2.998,4.5859 5.468,4.5859 2.734,0 5.467,-1.852 5.467,-5.3796 V 60.7628 C 339.795,47.1816 328.243,37.2161 314.22,37.2161 h -1.411 c -15.168,0 -27.427,12.1702 -27.427,27.4271 v 46.6528 c 0,15.345 12.259,27.338 27.427,27.338 h 1.411 c 15.169,0 27.427,-11.993 27.427,-27.338 z"
       transform="matrix(1.00005,0,0,1,385.137,92.7103)"
       id="path3" /><path
       d="M 197.369,462.732 H 42.6839 c -1.2347,0 -2.293,-0.794 -2.9985,-2.205 -0.6173,-1.322 -0.7055,-2.998 -0.1763,-4.409 L 116.852,252.576 c 0.617,-1.588 1.763,-2.558 3.086,-2.558 1.323,0 2.558,0.97 3.087,2.558 l 77.342,203.542 c 0.529,1.411 0.441,3.087 -0.176,4.409 -0.441,1.323 -1.587,2.205 -2.822,2.205"
       transform="matrix(1.00005,0,0,1,385.137,92.7103)"
       id="path4" /><path
       d="m 200.367,39.4209 c 0.618,1.3228 0.706,2.9984 0.177,4.4095 L 123.201,247.373 c -0.617,1.587 -1.764,2.557 -3.086,2.557 -1.323,0 -2.558,-0.97 -3.087,-2.557 L 39.5972,43.9185 c -0.5291,-1.411 -0.4409,-3.0866 0.1764,-4.4094 0.6173,-1.3229 1.7638,-2.2048 2.9985,-2.2048 H 197.457 c 1.147,0 2.293,0.7937 2.91,2.1166"
       transform="matrix(1.00005,0,0,1,385.137,92.7103)"
       id="path5" /></g></svg>
