<?xml version="1.0" encoding="utf-8"?>
<!-- Generator: Adobe Illustrator 23.1.1, SVG Export Plug-In . SVG Version: 6.00 Build 0)  -->
<svg version="1.1" id="Ebene_1" xmlns="http://www.w3.org/2000/svg" xmlns:xlink="http://www.w3.org/1999/xlink" x="0px" y="0px"
	 viewBox="0 0 566.9 566.9" style="enable-background:new 0 0 566.9 566.9;" xml:space="preserve">
<g>
	<path d="M505.1,492.7c0,10.3-8.4,18.7-18.7,18.7h-19v-39.6h19c10,0,18.7,8.8,18.7,19.5V492.7z M503.8,440.6
		c0,11-7.5,18.7-17.4,18.7h-19v-36.2h19c10.3,0,17.4,6.9,17.4,17.4V440.6z M517.6,491.2c0-13.3-7.2-21.8-14.1-25.7
		c7-3.9,12.8-12.6,12.8-24.9v-0.2c0-17-12.3-29.8-29.8-29.8h-25.2c-3.3,0-6.2,2.9-6.2,6.2v100.7c0,3.3,2.9,6.2,6.2,6.2h25.2
		c17.2,0,31.1-13.9,31.1-31.1V491.2z M385.9,484.4l16.2-52.4l16.4,52.4H385.9z M441.9,518.8c0-0.5-0.2-1.1-0.3-2l-31.9-102.5
		c-1-3.1-4.1-4.6-7.5-4.6c-3.3,0-6.4,1.5-7.4,4.6l-31.9,102.5c-0.2,0.8-0.3,1.5-0.3,2c0,3.3,2.6,5.9,6.4,5.9c2.5,0,4.8-1.1,5.7-4.3
		l7.4-23.6h40.5l7.2,23.6c1,3.1,3.4,4.3,5.9,4.3C439.3,524.7,441.9,522,441.9,518.8 M349.4,517.6c0-3.1-2.1-6.2-6.2-6.2h-38.5v-95.5
		c0-4.1-3.1-6.2-6.2-6.2c-3.1,0-6.2,2.1-6.2,6.2v101.7c0,3.3,2.9,6.2,6.2,6.2h44.7C347.2,523.8,349.4,520.7,349.4,517.6"/>
	<path d="M466.5,300.7l16.2-52.4l16.4,52.4H466.5z M522.5,335.1c0-0.5-0.2-1.1-0.3-2l-31.9-102.5c-1-3.1-4.1-4.6-7.5-4.6
		c-3.3,0-6.4,1.5-7.4,4.6l-31.9,102.5c-0.2,0.8-0.3,1.5-0.3,2c0,3.3,2.6,5.9,6.4,5.9c2.5,0,4.8-1.1,5.7-4.3l7.4-23.6H503l7.2,23.6
		c1,3.1,3.4,4.3,5.9,4.3C519.8,341,522.5,338.3,522.5,335.1 M438.9,233.2c0-3.1-2.1-6.2-6.2-6.2h-48.5c-4.1,0-6.2,3.1-6.2,6.2
		c0,3.1,2.1,6.2,6.2,6.2h18v95.5c0,4.1,3.1,6.1,6.2,6.1s6.2-2,6.2-6.1v-95.5h18C436.8,239.4,438.9,236.3,438.9,233.2 M322,300.7
		l16.2-52.4l16.4,52.4H322z M378,335.1c0-0.5-0.2-1.1-0.3-2l-31.9-102.5c-1-3.1-4.1-4.6-7.5-4.6c-3.3,0-6.4,1.5-7.4,4.6l-31.9,102.5
		c-0.2,0.8-0.3,1.5-0.3,2c0,3.3,2.6,5.9,6.4,5.9c2.5,0,4.8-1.1,5.7-4.3l7.4-23.6h40.5l7.2,23.6c1,3.1,3.4,4.3,5.9,4.3
		C375.4,341,378,338.3,378,335.1 M269.1,309c0,10.3-8.4,18.7-18.7,18.7h-20.3v-88.3h20.5c10.3,0,18.5,8.4,18.5,18.7V309z
		 M281.4,257.9c0-17-13.9-31-31-31h-26.5c-3.3,0-6.2,2.9-6.2,6.2v100.7c0,3.3,2.9,6.2,6.2,6.2h26.5c17,0,31-13.9,31-31.1V257.9z"/>
	<path d="M520.7,150.2c0-3.1-2.1-6.2-6.2-6.2h-41.3l46.5-89.3c2.9-5.7-0.3-11.5-6.4-11.5h-46.8c-4.4,0-6.2,3.1-6.2,6.2
		s1.8,6.2,6.2,6.2h38.8l-46.3,88.9c-0.7,1.1-1,2.5-1,3.9c0,4.1,2.6,7.9,7.2,7.9h49.3C518.5,156.4,520.7,153.3,520.7,150.2
		 M431.7,48.5c0-4.1-3.1-6.2-6.2-6.2s-6.2,2.1-6.2,6.2v102.7c0,4.1,3.1,6.1,6.2,6.1s6.2-2,6.2-6.1V48.5z M387.4,100.9
		c0-3.3-2.9-6.2-6.2-6.2h-23.4c-4.1,0-6.2,3.1-6.2,6.2c0,3.1,2.1,6.2,6.2,6.2h17.2v19.2c0,10.3-8.4,18.7-18.7,18.7h-1.6
		c-10.3,0-18.7-8.4-18.7-18.7V73.2c0-10,8.4-18.5,18.7-18.5h1.6c10.6,0,16.9,6.9,18.7,16.1c0.7,3.8,3.4,5.2,6.2,5.2
		c3.1,0,6.2-2.1,6.2-6.1v-1c-2.1-15.4-15.2-26.7-31.1-26.7h-1.6c-17.2,0-31.1,13.8-31.1,31.1v52.9c0,17.4,13.9,31,31.1,31h1.6
		c17.2,0,31.1-13.6,31.1-31V100.9z"/>
	<path d="M223.8,524.7H48.4c-1.4,0-2.6-0.9-3.4-2.5c-0.7-1.5-0.8-3.4-0.2-5l87.7-230.8c0.7-1.8,2-2.9,3.5-2.9c1.5,0,2.9,1.1,3.5,2.9
		l87.7,230.8c0.6,1.6,0.5,3.5-0.2,5C226.5,523.7,225.2,524.7,223.8,524.7"/>
	<path d="M227.2,44.7c0.7,1.5,0.8,3.4,0.2,5l-87.7,230.8c-0.7,1.8-2,2.9-3.5,2.9c-1.5,0-2.9-1.1-3.5-2.9L44.9,49.8
		c-0.6-1.6-0.5-3.5,0.2-5c0.7-1.5,2-2.5,3.4-2.5h175.4C225.2,42.3,226.5,43.2,227.2,44.7"/>
</g>
</svg>
